<svg width="313" height="395" viewBox="0 0 313 395" fill="none" xmlns="http://www.w3.org/2000/svg">
<g filter="url(#filter0_d_715:938)">
<rect x="10" y="6" width="245" height="305" rx="22" fill="#FAFAFD"/>
</g>
<path d="M296.838 278.203H228.812V386.142H296.838V278.203Z" fill="#3565D9"/>
<path d="M229.076 278.202H161.049V386.141H229.076V278.202Z" fill="#3565D9" fill-opacity="0.49"/>
<path d="M193.436 147.308L190.536 205.329L176.9 247.876H201.449L214.2 211.217L218.185 169.555L193.436 147.308Z" fill="#D5DDED"/>
<path d="M192.751 350.093L197.687 373.094L181.107 375.064L176.392 352.418L192.751 350.093Z" fill="#F6AB7A"/>
<path d="M198.683 371.013C198.262 369.773 196.934 369.331 196.026 370.128C194.255 371.699 191.068 373.625 186.353 373.16C181.46 372.673 179.623 369.796 178.915 367.715C178.538 366.63 177.498 366.077 176.568 366.541L146.882 381.462C145.089 382.369 143.673 384.052 142.964 386.155C142.3 388.125 143.628 390.25 145.488 390.206L196.779 388.789C198.794 388.745 200.343 386.752 200.166 384.45L199.325 373.16C199.303 372.983 199.281 372.784 199.214 372.607L198.683 371.013Z" fill="#1F252A"/>
<path d="M192.463 238.879H153.966C153.966 238.879 130.523 237.573 129.129 256.81C127.734 276.047 163.507 331.08 169.108 360.478L201.295 357.821L178.118 277.885L235.762 278.217C240.035 278.239 244.285 277.619 248.314 276.224C259.537 272.328 276.671 266.75 267.33 235.847L192.463 238.879Z" fill="#092330"/>
<path d="M222.169 350.189L230.005 377.683L213.425 379.653L205.81 352.514L222.169 350.189Z" fill="#F6AB7A"/>
<path d="M231.002 375.597C230.581 374.357 229.253 373.915 228.345 374.712C226.574 376.283 223.387 378.209 218.672 377.744C213.779 377.257 211.942 374.38 211.233 372.299C210.857 371.214 209.817 370.661 208.887 371.125L179.201 386.046C177.408 386.953 175.991 388.636 175.283 390.739C174.619 392.709 175.947 394.834 177.807 394.79L229.984 393.373C231.998 393.329 233.548 391.336 233.37 389.034L231.622 377.744C231.6 377.567 231.577 377.368 231.511 377.191L231.002 375.597Z" fill="#1F252A"/>
<path d="M238.462 124.496C239.325 125.337 277.954 135.188 277.954 135.188L269.697 157.126L227.46 153.938L238.462 124.496Z" fill="#D5DDED"/>
<path d="M222.523 129.788C222.523 129.788 197.354 138.975 193.435 147.299C194.786 159.053 198.925 170.365 205.743 180.039C214.111 191.905 224.449 212.293 222.545 238.879H295.31C295.31 238.879 291.391 164.078 269.852 135.367L222.523 129.788Z" fill="#D5DDED"/>
<path d="M230.781 141.647C237.931 140.186 242.536 133.212 241.075 126.062L236.802 105.143L210.924 110.434L215.197 131.353C216.658 138.503 223.631 143.108 230.781 141.647Z" fill="#F6AB7A"/>
<path d="M238.572 112.458C238.572 112.458 235.849 129.415 222.656 130.434C211.1 131.319 212.207 114.606 212.207 114.606L238.572 112.458Z" fill="#ED8656"/>
<path d="M223.696 121.135L225.976 120.604C237.421 117.948 244.549 106.525 241.893 95.1023L238.882 82.0637C236.226 70.6189 224.803 63.4908 213.38 66.1472L211.1 66.6785C199.656 69.3349 192.527 80.7576 195.184 92.1803L198.195 105.219C200.851 116.664 212.274 123.792 223.696 121.135Z" fill="#F6AB7A"/>
<path d="M234.72 100.531C234.189 101.438 233.68 102.811 233.503 104.892C233.303 107.526 231.975 110.027 229.762 111.488C223.408 115.695 218.56 105.047 209.174 106.928C209.174 106.928 205.5 107.482 204.769 111.577C204.038 115.65 198.925 108.522 197.796 103.652C196.667 98.7819 196.091 127.759 219.202 125.302C219.202 125.302 230.869 124.926 238.727 113.038C239.59 111.732 240.1 110.205 240.144 108.633C240.21 106.308 239.878 102.789 237.664 100.265C236.89 99.3353 235.34 99.4681 234.72 100.531Z" fill="#1C2226"/>
<path d="M234.744 93.9503C234.744 93.9503 224.76 90.6518 226.442 76.0636C226.442 76.0636 201.649 99.5288 183.275 82.3062C183.275 82.3062 191.488 80.1147 194.875 74.4919C201.051 64.2425 218.805 50.1191 233.017 66.4562C233.017 66.4562 250.306 63.7776 245.347 90.4083L234.744 93.9503Z" fill="#1C2226"/>
<path d="M234.744 93.9548C235.696 98.028 239.769 100.574 243.843 99.644C247.938 98.6921 250.461 94.6189 249.532 90.5457C248.58 86.4725 244.507 83.9268 240.433 84.8565C236.338 85.8084 233.792 89.8816 234.744 93.9548Z" fill="#F6AB7A"/>
<path d="M222.126 140.839L232.818 141.039L225.336 156.534L217.256 141.681L222.126 140.839Z" fill="#0C2C40"/>
<path d="M241.981 125.185L228.212 141.256L237.178 151.55L253.67 128.882C253.67 128.882 249.442 122.086 241.981 125.185Z" fill="#FFF7F3"/>
<path d="M222.126 140.842L214.201 149.786L208.622 135.839C208.622 135.839 210.083 129.575 214.643 130.77L222.126 140.842Z" fill="#FFF7F3"/>
<path d="M225.047 151.53C225.047 151.53 214.709 178.492 217.277 216.745L227.46 226.043L239.348 214.598L226.53 149.781L225.047 151.53Z" fill="#0C2C40"/>
<path d="M244.374 215.552L222.237 222.835L220.776 235.829L250.129 227.063L244.374 215.552Z" fill="#F6AB7A"/>
<path d="M225.535 231.431C225.535 239.024 219.381 245.2 211.766 245.2C204.173 245.2 197.997 239.046 197.997 231.431C197.997 223.838 204.151 217.661 211.766 217.661C219.359 217.661 225.535 223.815 225.535 231.431Z" fill="#F6AB7A"/>
<path d="M222.524 238.884H184.05C184.05 238.884 160.607 237.578 159.212 256.815C157.817 276.052 196.225 334.627 201.826 364.002L234.013 361.346L208.201 277.867L265.846 278.199C270.118 278.222 274.368 277.602 278.397 276.207C289.621 272.311 306.755 266.733 297.413 235.829L222.524 238.884Z" fill="#0C2C40"/>
<path d="M106.461 170.862H172.983C175.174 170.862 177.056 172.39 177.521 174.537L190.05 233.288C190.67 236.166 188.456 238.889 185.512 238.889H117.884C115.67 238.889 113.766 237.317 113.346 235.148L101.923 176.396C101.347 173.518 103.539 170.862 106.461 170.862Z" fill="#B2B2B2"/>
<path d="M102.63 170.863H169.13C171.321 170.863 173.203 172.39 173.668 174.537L186.197 233.289C186.817 236.167 184.626 238.889 181.659 238.889H114.053C111.839 238.889 109.935 237.318 109.515 235.148L98.0922 176.397C97.5167 173.519 99.7082 170.863 102.63 170.863Z" fill="#D1D1D1"/>
<path d="M188.233 233.866H233.68C235.075 233.866 236.182 234.995 236.182 236.367C236.182 237.762 235.053 238.869 233.68 238.869H187.348L188.233 233.866Z" fill="#B2B2B2"/>
<path d="M143.804 203.334C143.804 207.34 140.572 210.572 136.566 210.572C132.559 210.572 129.327 207.318 129.327 203.334C129.327 199.327 132.581 196.095 136.566 196.095C140.572 196.095 143.804 199.327 143.804 203.334Z" fill="white"/>
<path d="M262.082 156.084L286.388 195.333L228.212 216.098L236.182 233.32C236.182 233.32 285.923 227.742 309.964 209.213C312.178 207.509 313.284 204.741 312.908 201.974C311.779 193.12 306.953 171.625 286.388 141.076C282.204 134.855 273.881 132.973 267.395 136.737C260.643 140.633 258.274 149.266 262.082 156.084Z" fill="#D5DDED"/>
<path d="M243.687 210.575L286.389 195.345L265.026 160.834" stroke="#B3BEE2" stroke-width="0.7599" stroke-miterlimit="10" stroke-linecap="round" stroke-linejoin="round"/>
<path d="M214.777 197.569L204.262 169.81" stroke="#B3BEE2" stroke-width="0.7599" stroke-miterlimit="10" stroke-linecap="round" stroke-linejoin="round"/>
<path d="M244.374 232.158C244.374 232.158 277.048 228.062 293.518 218.632" stroke="#B3BEE2" stroke-width="0.7599" stroke-miterlimit="10" stroke-linecap="round" stroke-linejoin="round"/>
<defs>
<filter id="filter0_d_715:938" x="0" y="0" width="265" height="325" filterUnits="userSpaceOnUse" color-interpolation-filters="sRGB">
<feFlood flood-opacity="0" result="BackgroundImageFix"/>
<feColorMatrix in="SourceAlpha" type="matrix" values="0 0 0 0 0 0 0 0 0 0 0 0 0 0 0 0 0 0 127 0" result="hardAlpha"/>
<feOffset dy="4"/>
<feGaussianBlur stdDeviation="5"/>
<feComposite in2="hardAlpha" operator="out"/>
<feColorMatrix type="matrix" values="0 0 0 0 0 0 0 0 0 0 0 0 0 0 0 0 0 0 0.05 0"/>
<feBlend mode="normal" in2="BackgroundImageFix" result="effect1_dropShadow_715:938"/>
<feBlend mode="normal" in="SourceGraphic" in2="effect1_dropShadow_715:938" result="shape"/>
</filter>
</defs>
</svg>
