<svg width="14" height="14" viewBox="0 0 14 14" fill="none" xmlns="http://www.w3.org/2000/svg">
<path d="M2.79597 7.00058L0.532638 1.18191C0.375304 0.777245 0.769971 0.389912 1.16064 0.527245L1.22264 0.553912L13.2226 6.55391C13.2999 6.59261 13.3658 6.65065 13.4139 6.72239C13.462 6.79413 13.4908 6.87712 13.4973 6.96326C13.5038 7.0494 13.4879 7.13576 13.4511 7.21393C13.4143 7.29209 13.3578 7.35938 13.2873 7.40925L13.2226 7.44791L1.22264 13.4479C0.833971 13.6419 0.411304 13.2852 0.512638 12.8832L0.532638 12.8192L2.79597 7.00058L0.532638 1.18191L2.79597 7.00058ZM1.93464 2.02725L3.67464 6.50058H8.09264C8.21346 6.50058 8.3302 6.54434 8.42126 6.62376C8.51232 6.70317 8.57154 6.81288 8.58797 6.93258L8.59264 7.00058C8.59261 7.1215 8.54876 7.23832 8.46921 7.3294C8.38966 7.42047 8.27979 7.47963 8.15997 7.49591L8.09264 7.50058H3.6733L1.93397 11.9739L11.8813 7.00058L1.93397 2.02725H1.93464Z" fill="white"/>
</svg>
